/* XPM */
static char * netmate_48x48_xpm[] = {
"48 48 383 2",
"  	c None",
". 	c #000000",
"+ 	c #D1D1D1",
"@ 	c #D5D5D5",
"# 	c #FFFFFF",
"$ 	c #DDDDDD",
"% 	c #B2B2B2",
"& 	c #C1C1C1",
"* 	c #CDCDCD",
"= 	c #C7C7C7",
"- 	c #C0C0C0",
"; 	c #C9C9C9",
"> 	c #DEDEDE",
", 	c #DFDFDF",
"' 	c #CBCBCB",
") 	c #FAFAFA",
"! 	c #D0D0D0",
"~ 	c #D8D8D8",
"{ 	c #B6B6B6",
"] 	c #BCBCBC",
"^ 	c #F3F3F3",
"/ 	c #CCCCCC",
"( 	c #C6C6C6",
"_ 	c #E2E2E2",
": 	c #C4C4C4",
"< 	c #FEFEFE",
"[ 	c #E8E8E8",
"} 	c #E1E1E1",
"| 	c #F0F0F0",
"1 	c #E5E5E5",
"2 	c #EAEAEA",
"3 	c #E0E0E0",
"4 	c #E3E3E3",
"5 	c #DCDCDC",
"6 	c #E4E4E4",
"7 	c #F2F2F2",
"8 	c #EDEDED",
"9 	c #E9E9E9",
"0 	c #EFEFEF",
"a 	c #DADADA",
"b 	c #CACACA",
"c 	c #D4D4D4",
"d 	c #FCFCFC",
"e 	c #E6E6E6",
"f 	c #F7F7F7",
"g 	c #D3D3D3",
"h 	c #DBDBDB",
"i 	c #FBFBFB",
"j 	c #FDFDFD",
"k 	c #F6F6F6",
"l 	c #F5F5F5",
"m 	c #F8F8F8",
"n 	c #F4F4F4",
"o 	c #310000",
"p 	c #F1F1F1",
"q 	c #D7D7D7",
"r 	c #D9D9D9",
"s 	c #C8C8C8",
"t 	c #D6D6D6",
"u 	c #D2D2D2",
"v 	c #EBEBEB",
"w 	c #ECECEC",
"x 	c #BBACAC",
"y 	c #5A3434",
"z 	c #350707",
"A 	c #3E1111",
"B 	c #6D4C4C",
"C 	c #E3DEDE",
"D 	c #CEC3C3",
"E 	c #633D3D",
"F 	c #3A0C0C",
"G 	c #3B0E0E",
"H 	c #5C3636",
"I 	c #BEB0B0",
"J 	c #EEEEEE",
"K 	c #542D2D",
"L 	c #C2B9B9",
"M 	c #CCCBCB",
"N 	c #897171",
"O 	c #633F3F",
"P 	c #CABFBF",
"Q 	c #330404",
"R 	c #543030",
"S 	c #C1BABA",
"T 	c #D7D4D4",
"U 	c #684A4A",
"V 	c #A59393",
"W 	c #CFCFCF",
"X 	c #D2C8C8",
"Y 	c #F3F2F2",
"Z 	c #360707",
"` 	c #623E3E",
" .	c #D9D0D0",
"..	c #ECE8E8",
"+.	c #4F2626",
"@.	c #E8E7E7",
"#.	c #380A0A",
"$.	c #320202",
"%.	c #CECECE",
"&.	c #EAE5E5",
"*.	c #644040",
"=.	c #BAAAAA",
"-.	c #FEFEFF",
";.	c #FEFFFF",
">.	c #CEC4C4",
",.	c #350606",
"'.	c #451919",
").	c #CABDBD",
"!.	c #F9F8F8",
"~.	c #B4AEAE",
"{.	c #978585",
"].	c #573232",
"^.	c #431818",
"/.	c #B4ACAC",
"(.	c #CFD0D0",
"_.	c #E7E6E6",
":.	c #EBEAEA",
"<.	c #FDFCFC",
"[.	c #FCFBFA",
"}.	c #F5F5F4",
"|.	c #E9E8E8",
"1.	c #E8E8E7",
"2.	c #E2E2E1",
"3.	c #E9E9E8",
"4.	c #F1F1F0",
"5.	c #F3F3F2",
"6.	c #EBEBEA",
"7.	c #F6F6F5",
"8.	c #FAF9F8",
"9.	c #D4C9C9",
"0.	c #6B4848",
"a.	c #3E1211",
"b.	c #330403",
"c.	c #431717",
"d.	c #705050",
"e.	c #C2B5B4",
"f.	c #A99796",
"g.	c #431616",
"h.	c #F0F0EF",
"i.	c #E5E5E4",
"j.	c #E2E1E1",
"k.	c #E8E7E6",
"l.	c #EAEAE9",
"m.	c #DFDDDA",
"n.	c #D9D7D4",
"o.	c #D7D5D2",
"p.	c #DFDCD9",
"q.	c #DDDBD8",
"r.	c #DCDBD7",
"s.	c #E0DEDB",
"t.	c #E3E1DD",
"u.	c #D7D6D3",
"v.	c #DAD7D5",
"w.	c #DFDDD9",
"x.	c #D6D4D1",
"y.	c #DBD9D6",
"z.	c #DDDBD7",
"A.	c #E4E1DD",
"B.	c #E6E4E0",
"C.	c #E4E2DE",
"D.	c #FFFDF8",
"E.	c #E5E3DF",
"F.	c #E6E3DF",
"G.	c #BEBCB7",
"H.	c #B0AEAA",
"I.	c #B2B1AD",
"J.	c #B6B4B0",
"K.	c #B3B1AD",
"L.	c #C2C0BC",
"M.	c #D7D5D0",
"N.	c #AEACA8",
"O.	c #BBB9B5",
"P.	c #B0AFAB",
"Q.	c #D3D1CC",
"R.	c #D2D0CA",
"S.	c #ABA9A5",
"T.	c #BDBBB6",
"U.	c #CFCCC7",
"V.	c #D6D4CE",
"W.	c #DCD9D4",
"X.	c #DBD9D4",
"Y.	c #E7E6E1",
"Z.	c #DAD9D4",
"`.	c #D1CFCB",
" +	c #CDCBC7",
".+	c #D0CFCA",
"++	c #CAC8C4",
"@+	c #D1D0CC",
"#+	c #CCCAC6",
"$+	c #D3D2CD",
"%+	c #D9D7D2",
"&+	c #CCCBC6",
"*+	c #CBC9C5",
"=+	c #D5D3CE",
"-+	c #DEDDD8",
";+	c #CDCCC7",
">+	c #D8D6D1",
",+	c #D9D7D1",
"'+	c #DFDDD8",
")+	c #DEDCD7",
"!+	c #DDDCD7",
"~+	c #DAD9D5",
"{+	c #DCDBD6",
"]+	c #DDDBD6",
"^+	c #D4D3CE",
"/+	c #DFDED9",
"(+	c #DBDAD5",
"_+	c #DEDCD6",
":+	c #DAD8D3",
"<+	c #D2D0CC",
"[+	c #DCDAD5",
"}+	c #D5D3CF",
"|+	c #D9D8D3",
"1+	c #E0DFDA",
"2+	c #DCDBD5",
"3+	c #DBD9D5",
"4+	c #D5D4D0",
"5+	c #DBDAD4",
"6+	c #B9B7B2",
"7+	c #D4D2CD",
"8+	c #DDDBD5",
"9+	c #C0BFBA",
"0+	c #B9B8B4",
"a+	c #BFBEB9",
"b+	c #CFCEC9",
"c+	c #C1BFBB",
"d+	c #AEADA9",
"e+	c #D0CEC9",
"f+	c #CDCBC6",
"g+	c #D3D1CD",
"h+	c #D0CECA",
"i+	c #D4D2CE",
"j+	c #C5C3BE",
"k+	c #DEDDD9",
"l+	c #E2E0DB",
"m+	c #E9E7E1",
"n+	c #BEBCB6",
"o+	c #D4D3CD",
"p+	c #D6D4CF",
"q+	c #E0DFD9",
"r+	c #C9C8C3",
"s+	c #C8C7C2",
"t+	c #C7C5C1",
"u+	c #9D9C99",
"v+	c #A3A19E",
"w+	c #A6A5A1",
"x+	c #A3A19D",
"y+	c #A4A29E",
"z+	c #CECCC7",
"A+	c #E0DED9",
"B+	c #ACABA7",
"C+	c #B2B0AC",
"D+	c #B8B7B3",
"E+	c #B6B5B1",
"F+	c #A9A7A3",
"G+	c #A09E9A",
"H+	c #A4A39F",
"I+	c #9A9996",
"J+	c #ACAAA6",
"K+	c #BCBAB4",
"L+	c #E0DED8",
"M+	c #E1DFDA",
"N+	c #CDCAC5",
"O+	c #8E7976",
"P+	c #451A19",
"Q+	c #340404",
"R+	c #4B2322",
"S+	c #9F8F8B",
"T+	c #816865",
"U+	c #401414",
"V+	c #542F2E",
"W+	c #B2A8A4",
"X+	c #968481",
"Y+	c #350505",
"Z+	c #491F1E",
"`+	c #816765",
" @	c #D2CFCB",
".@	c #B0A39F",
"+@	c #5D3937",
"@@	c #390A0A",
"#@	c #390B0B",
"$@	c #56302F",
"%@	c #A69794",
"&@	c #D8D5D0",
"*@	c #D6D5CF",
"=@	c #D2CFCA",
"-@	c #63403F",
";@	c #C6BFBA",
">@	c #9C8985",
",@	c #644240",
"'@	c #C6C0BB",
")@	c #9A8784",
"!@	c #542E2D",
"~@	c #7C615F",
"{@	c #A49490",
"]@	c #CBC7C3",
"^@	c #C9C4BF",
"/@	c #87706D",
"(@	c #D1CEC9",
"_@	c #A89A96",
":@	c #320303",
"<@	c #54302E",
"[@	c #B9B0AC",
"}@	c #C0BAB6",
"|@	c #664745",
"1@	c #927E7B",
"2@	c #CCC9C4",
"3@	c #E1E1DC",
"4@	c #C2B9B5",
"5@	c #D7D4CF",
"6@	c #DBD8D3",
"7@	c #471D1C",
"8@	c #5A3534",
"9@	c #988D8B",
"0@	c #B9B7B3",
"a@	c #BAB9B5",
"b@	c #A59F9D",
"c@	c #441A1A",
"d@	c #BDBBB7",
"e@	c #D3D0CA",
"f@	c #D2CFC9",
"g@	c #C8C2BD",
"h@	c #6F4F4D",
"i@	c #431716",
"j@	c #320101",
"k@	c #360808",
"l@	c #310202",
"m@	c #C4C2BD",
"n@	c #D4D2CC",
"o@	c #D7D5CF",
"p@	c #5E3B39",
"q@	c #7F6562",
"r@	c #D0CDC8",
"s@	c #BEBCB8",
"t@	c #380909",
"u@	c #B5B3AE",
"v@	c #CECCC8",
"w@	c #A69995",
"x@	c #BAB8B4",
"y@	c #C6C5C0",
"z@	c #5B3635",
"A@	c #A2918E",
"B@	c #E1E0DB",
"C@	c #D2D1CC",
"D@	c #B6B6B1",
"E@	c #522F2D",
"F@	c #7C6563",
"G@	c #C0BCB7",
"H@	c #9F9491",
"I@	c #421818",
"J@	c #BCBBB6",
"K@	c #411616",
"L@	c #C1B7B3",
"M@	c #B4A8A4",
"N@	c #471C1B",
"O@	c #B8ABA7",
"P@	c #C8C1BC",
"Q@	c #9C8986",
"R@	c #583231",
"S@	c #C8C5BF",
"T@	c #C7C4BE",
"U@	c #B8B0AB",
"V@	c #624240",
"W@	c #3B0D0D",
"X@	c #4D2423",
"Y@	c #907E7A",
"Z@	c #8E7A77",
"`@	c #A99C98",
" #	c #603D3B",
".#	c #320302",
"+#	c #3F1413",
"@#	c #664543",
"##	c #A39590",
"$#	c #E3E2DE",
"%#	c #D9D6D1",
"&#	c #D3D1CB",
"*#	c #CECBC5",
"=#	c #CECCC6",
"-#	c #E2E1DC",
";#	c #DEDCD8",
">#	c #CBC9C4",
",#	c #C3C0BA",
"'#	c #C3C1BA",
"                                                                                                ",
"                                                                                                ",
"                                                                                                ",
"      . . . . . . . . . . . . . . . . . . . . . . . . . . . . . . . . . . . . . . . . . .       ",
"      . + @ # # $ % & * = - ; > , ' + ) # # # # % ! ~ { ; > # # # # - ] ^ / ! - ( _ @ : .       ",
"      . # # # # # # # # # # # # # # # # # # # # # # # # # # # # # # # # < # # # # # # # .       ",
"      . [ } # # | , _ 1 2 3 > # 4 5 6 < # # # # ~ 3 ^ _ > 7 # # # # 8 # # # 3 5 6 9 0 1 .       ",
"      . > a # # [ b c 5 ~ / b # 2 , _ d # # # # * > 4 * $ 9 # # # # e / @ f # / g , [ h .       ",
"      . i ) # # j d i i < f ) # k l m # # # # # k m # i f ) n k o o i ) # p # ) ) < j d .       ",
"      . > q # # [ / c r 1 # # # # # # # # # # # s ~ [ + q 3 @ g o o t # # # $ u g 2 4 q .       ",
"      . | # # # # # # # # # # # # # # # # # # # # # # # p # # # o o # v d p 8 8 w k p w .       ",
"      . # 8 # # # # # # # o o x y z A B C # # D E F G H I l # o o o o o 9 < [ 6 8 J f J .       ",
"      . h # # # # # # # # o o K L M N o O # P Q R S T U o V # # o o 4 b W ^ ; b W $ 6 q .       ",
"      . j j # # < d d j # o o X # < Y o Z # ` o  .< j ..o +.# # o o j d d < d j d j j j .       ",
"      . # # # # # q } r b o o @.h # j o o # #.o o o o o o $.b q o o 2 ! a i ! %.~ _ p 3 .       ",
"      . 3 6 # # 0 # # # # o o # # # # o o # #.o &.# # # # v v > o o e ~ t ^ t ~ 5 6 e $ .       ",
"      . < i # # j # # # # o o < d d i o o # *.o =.# # # # d ) d o o i j # ) < j d # < d .       ",
"      . $ s # # e / q # # o o # -.# ;.o o # >.,.'.).!.~.{.].s %.^.o /.%.k = , (.* w 4 u .       ",
"      . _.:.<.[.}.|.1.2.3.o o 4.5.6.7.o o 8.8.9.0.a.b.c.d.e.4.|.f.g.o o h.4.i.j.k.l.l.@..       ",
"      . m.n.o.p.q.r.s.t.u.m.v.w.s.x.y.z.w.A.t.t.B.C.D.E.E.C.C.E.C.t.E.B.C.C.E.F.E.E.E.E..       ",
"      . G.H.I.J.G.K.L.M.N.O.P.Q.R.S.T.U.V.W.X.X.X.X.X.Y.Z.X.X.X.X.X.X.X.X.X.X.X.X.X.X.X..       ",
"      . `. +.+++@+#+$+%+++&+*+=+-+;+$+>+,+'+)+!+!+!+-+~+{+!+)+-+)+!+!+!+-+)+!+!+!+-+-+!+.       ",
"      . )+]+^+/+)+)+-+^+(+]+_+:+<+!+)+[+X.}+|+]+]+]+1+2+]+]+3+4+|+]+]+]+=+5+]+]+{+=+=+!+.       ",
"      . [+%+6+7+)+8+'+9+}+]+]+[+0+M.]+]+]+a+b+)+[+~+1+W.[+[+%+c+*+]+[+)+d+<+[+[+[+e+f+]+.       ",
"      . Z.g+h+<+7+g+i+h+g+g+g+g+h+g+g+g+7+h+j+V.!+k+~+1+1+1+1+!+-+1+1+1+(+/+1+1+1+/+-+1+.       ",
"      . g+[+[+[+[+[+[+[+[+[+[+[+[+[+l+m+m+)+>+n+o+[+[+[+[+[+[+[+]+]+]+[+[+[+[+[+[+[+[+[+.       ",
"      . g+[+[+[+[+]+p+7+:+>+X.X.:+q+:+[+[+[+'+n+{+[+[+X.;+i+o o r+s+t+&+:+i+X.>+e+]+[+[+.       ",
"      . g+]+[+[+[+'+L.u+v+w+x+y+z+N.A+[+[+[+'+n+{+[+[+>+B+C+o o D+E+F+J.G+H+I+J+++)+[+[+.       ",
"      . <+:+:+:+:+:+[+)+)+)+)+)+X.]+:+:+:+:+[+K+{+{+[+]+A+'+o o '+'+A+L+M.A+M+A+)+[+[+[+.       ",
"      . #+N+o o O+P+Q+R+S+T+U+Z V+W+N+N+N+X+o o Y+Z+`+ @M.o o o o o M.M..@+@@@#@$@%@&@&@.       ",
"      . *@=@o o -@;@>@o o ,@'@)@o !@=@=@=@~@{@]@^@/@o ~@(@(@o o (@(@(@_@:@<@[@}@|@o 1@2@.       ",
"      . 3@z.o o 4@)+5@o o 4@)+6@o Y+)+)+)+)+)+)+)+6@o 7@)+)+o o )+)+)+8@o 9@0@a@b@o c@d@.       ",
"      . X.=+o o e@V.V.o o f@V.V.o o V.V.g@h@i@:@o o o j@V.V.o o V.V.V.k@o o o o o o l@m@.       ",
"      . >+n@o o 7+7+7+o o 7+7+7+o o =+o@p@o q@g@=+r@o o M.p+o o 7+7+7+k@o g@p+V.V.V.p+V..       ",
"      . /+X.o o X.X.X.o o X.X.X.o o #+s@t@o u@v@<+w@o o x@y@o o X.X.X.z@o A@X.X.X.X.X.X..       ",
"      . B@]+o o ]+]+]+o o ]+]+]+o o C@D@E@o F@G@H@I@o o J.J@K@o L@]+]+M@Y+N@O@&@P@Q@R@]+.       ",
"      . f+S@o o S@S@S@o o S@S@S@o o S@T@U@V@W@Y+X@Y@o o T@T@Z@A o o S@S@`@ #G .#+#@###S@.       ",
"      . $#1+1+1+1+1+1+1+1+1+1+1+1+1+1+1+1+1+1+1+1+1+1+1+1+1+1+1+1+1+1+1+1+1+1+1+1+1+1+1+.       ",
"      . 1+[+[+[+[+[+[+[+[+[+[+[+[+[+[+[+[+[+[+[+[+[+[+[+[+[+[+[+[+[+[+[+[+[+[+[+[+[+[+[+.       ",
"      . ]+>+%#%#%#%#%#%#%#%#%#%#%#%#%#%#%#%#%#%#%#%#%#%#%#%#%#%#%#%#%#%#%#%#%#%#%#%#%#%#.       ",
"      . &#*#=#=#=#=#=#=#=#=#=#=#=#=#=#=#=#=#=#=#=#=#=#=#=#=#=#=#=#=#=#=#=#=#=#=#=#=#=#=#.       ",
"      . t.-+w.w.w.w.w.w.w.w.w.w.w.w.w.w.w.w.w.w.w.w.w.w.w.w.w.w.w.w.w.w.w.w.w.w.w.w.w.w..       ",
"      . -#)+;#;#;#;#;#;#;#;#;#;#;#;#;#;#;#;#;#;#;#;#;#;#;#;#;#;#;#;#;#;#;#;#;#;#;#;#;#;#.       ",
"      . >#,#'#'#'#'#'#'#'#'#'#'#'#'#'#'#'#'#'#'#'#'#'#'#'#'#'#'#'#'#'#'#'#'#'#'#'#'#'#'#.       ",
"      . . . . . . . . . . . . . . . . . . . . . . . . . . . . . . . . . . . . . . . . . .       ",
"                                                                                                ",
"                                                                                                ",
"                                                                                                "};
