/* XPM */
static char * netmate_32x32_xpm[] = {
"32 32 455 2",
"  	c None",
". 	c #030303",
"+ 	c #181818",
"@ 	c #1B1B1B",
"# 	c #1C1C1C",
"$ 	c #161616",
"% 	c #141414",
"& 	c #151515",
"* 	c #1D1D1D",
"= 	c #131313",
"- 	c #1A1A1A",
"; 	c #191919",
"> 	c #171717",
", 	c #020202",
"' 	c #FFFFFF",
") 	c #F1F1F1",
"! 	c #E9E9E9",
"~ 	c #F3F3F3",
"{ 	c #EEEEEE",
"] 	c #FCFCFC",
"^ 	c #FBFBFB",
"/ 	c #F2F2F2",
"( 	c #E3E3E3",
"_ 	c #F9F9F9",
": 	c #E8E8E8",
"< 	c #E5E5E5",
"[ 	c #EFEFEF",
"} 	c #FEFEFE",
"| 	c #EBEBEB",
"1 	c #E4E4E4",
"2 	c #FDFDFD",
"3 	c #E0E0E0",
"4 	c #EDEDED",
"5 	c #FAFAFA",
"6 	c #E2E2E2",
"7 	c #EAEAEA",
"8 	c #DCDCDC",
"9 	c #D2D2D2",
"0 	c #DEDEDE",
"a 	c #D6D6D6",
"b 	c #C8C8C8",
"c 	c #E7E7E7",
"d 	c #CECECE",
"e 	c #F3F0F0",
"f 	c #F0EEEE",
"g 	c #D4D4D4",
"h 	c #D5D5D5",
"i 	c #E1E1E1",
"j 	c #F0F0F0",
"k 	c #ECECEC",
"l 	c #F4F7F7",
"m 	c #1F0000",
"n 	c #603C3C",
"o 	c #F5F5F5",
"p 	c #F8F8F8",
"q 	c #F6F6F6",
"r 	c #FCFFFF",
"s 	c #2E0000",
"t 	c #725151",
"u 	c #BFAFAF",
"v 	c #1C0000",
"w 	c #B7A7A7",
"x 	c #4A2020",
"y 	c #340606",
"z 	c #633F3F",
"A 	c #EEEBEB",
"B 	c #D6CDCD",
"C 	c #562D2D",
"D 	c #360707",
"E 	c #4E2525",
"F 	c #C2B5B5",
"G 	c #633D3D",
"H 	c #310000",
"I 	c #230000",
"J 	c #E5E4E4",
"K 	c #C1B2B2",
"L 	c #240000",
"M 	c #704F4F",
"N 	c #CEC8C8",
"O 	c #330202",
"P 	c #6E4D4D",
"Q 	c #E3DDDD",
"R 	c #2F0000",
"S 	c #927D7D",
"T 	c #F9FEFE",
"U 	c #B1A3A3",
"V 	c #270000",
"W 	c #BBADAD",
"X 	c #6F4F4F",
"Y 	c #F5FBFB",
"Z 	c #D7D7D7",
"` 	c #A39393",
" .	c #1D0000",
"..	c #E1DEDE",
"+.	c #ECEDED",
"@.	c #3D0F0F",
"#.	c #583030",
"$.	c #A69191",
"%.	c #5F3939",
"&.	c #633E3E",
"*.	c #654040",
"=.	c #6D4E4E",
"-.	c #F2F7F7",
";.	c #6D4B4B",
">.	c #EBEDED",
",.	c #E6E6E6",
"'.	c #F4F4F4",
").	c #BFB0B0",
"!.	c #1A0000",
"~.	c #FBFAFA",
"{.	c #A08A8A",
"].	c #250000",
"^.	c #F4F1F1",
"/.	c #FDFCFC",
"(.	c #FAF9F9",
"_.	c #E8E7E7",
":.	c #EDF1F1",
"<.	c #694747",
"[.	c #E3E5E5",
"}.	c #DBDBDB",
"|.	c #C0B1B1",
"1.	c #572E2F",
"2.	c #CCC0C0",
"3.	c #AA9696",
"4.	c #F4F5F5",
"5.	c #E6E1E1",
"6.	c #DCD6D6",
"7.	c #6B4949",
"8.	c #FDFFFF",
"9.	c #F7F7F7",
"0.	c #FEFEFD",
"a.	c #DEDEDD",
"b.	c #EDEEED",
"c.	c #B4A3A3",
"d.	c #0D0000",
"e.	c #F4F3F3",
"f.	c #4A1E1F",
"g.	c #A48E8E",
"h.	c #4C2222",
"i.	c #6D4B4A",
"j.	c #614040",
"k.	c #745656",
"l.	c #B0A1A1",
"m.	c #E7E9E9",
"n.	c #7C5F5E",
"o.	c #350606",
"p.	c #512C2D",
"q.	c #DFDFDE",
"r.	c #DBDCDC",
"s.	c #DBDADA",
"t.	c #EBEBEA",
"u.	c #191818",
"v.	c #191918",
"w.	c #EDEBE8",
"x.	c #DAD8D6",
"y.	c #E2E0DD",
"z.	c #DFDDDA",
"A.	c #E1DFDC",
"B.	c #E3E1DD",
"C.	c #D8D6D3",
"D.	c #D2CCCA",
"E.	c #E0DEDA",
"F.	c #DFDEDB",
"G.	c #DCDAD8",
"H.	c #D4CFCC",
"I.	c #D8D4D0",
"J.	c #E6E4E0",
"K.	c #DEDAD6",
"L.	c #E7E2DE",
"M.	c #DFDBD7",
"N.	c #E4E2DE",
"O.	c #E1DEDA",
"P.	c #D9D5D1",
"Q.	c #DAD5D1",
"R.	c #E5E3DF",
"S.	c #E5E3E0",
"T.	c #E6E3E0",
"U.	c #F5F3EF",
"V.	c #C5C3BE",
"W.	c #B4B3AF",
"X.	c #B7B5B1",
"Y.	c #BBB9B4",
"Z.	c #BEBCB8",
"`.	c #D6D4CF",
" +	c #B1AFAB",
".+	c #B2B1AD",
"++	c #D2D0CB",
"@+	c #CAC8C3",
"#+	c #B5B3AF",
"$+	c #CECBC6",
"%+	c #D7D5CF",
"&+	c #DCDAD4",
"*+	c #DBD9D4",
"=+	c #D9D7D2",
"-+	c #D9D8D3",
";+	c #E9E7E2",
">+	c #181817",
",+	c #E7E5E0",
"'+	c #D6D5D0",
")+	c #D7D6D1",
"!+	c #D8D7D2",
"~+	c #D8D6D1",
"{+	c #D5D4CF",
"]+	c #D7D5D0",
"^+	c #DAD8D4",
"/+	c #DAD8D3",
"(+	c #DCDAD5",
"_+	c #DDDBD6",
":+	c #DDDCD7",
"<+	c #DFDDD8",
"[+	c #DBDAD5",
"}+	c #DDDBD7",
"|+	c #DCDBD6",
"1+	c #DDDCD6",
"2+	c #EAE9E4",
"3+	c #ECEAE4",
"4+	c #BEBCB7",
"5+	c #DFDDD7",
"6+	c #E1DFDA",
"7+	c #C1C0BB",
"8+	c #DEDCD7",
"9+	c #BFBEB9",
"0+	c #DEDCD6",
"a+	c #C7C6C1",
"b+	c #DDDCD8",
"c+	c #DDDAD5",
"d+	c #C6C4C0",
"e+	c #CCCAC6",
"f+	c #E1DED9",
"g+	c #B0AFAB",
"h+	c #D7D5D1",
"i+	c #CECCC7",
"j+	c #E4E2DC",
"k+	c #D3D1CD",
"l+	c #D4D2CD",
"m+	c #D4D2CE",
"n+	c #D2D0CC",
"o+	c #D5D3CF",
"p+	c #CBC9C5",
"q+	c #D1CFC9",
"r+	c #DCDBD7",
"s+	c #DFDED9",
"t+	c #E0DFDA",
"u+	c #E1E0DB",
"v+	c #DEDDD7",
"w+	c #EEEDE8",
"x+	c #E5E3DE",
"y+	c #E0DED9",
"z+	c #E3E1DC",
"A+	c #BDB2AE",
"B+	c #866C69",
"C+	c #D5D3CE",
"D+	c #EAE8E3",
"E+	c #E6E4DF",
"F+	c #CDCBC6",
"G+	c #A2A09D",
"H+	c #AAA8A4",
"I+	c #A9A8A3",
"J+	c #A9A7A3",
"K+	c #CDCBC7",
"L+	c #C0BEB8",
"M+	c #DEDDD8",
"N+	c #ADACA8",
"O+	c #816D6B",
"P+	c #200000",
"Q+	c #BABAB6",
"R+	c #B2B0AC",
"S+	c #B4B2AE",
"T+	c #A6A4A0",
"U+	c #A6A5A1",
"V+	c #A8A6A2",
"W+	c #C7C5C1",
"X+	c #D2CDC9",
"Y+	c #D0CCC7",
"Z+	c #D4D0CC",
"`+	c #D2CDC8",
" @	c #D8D4CF",
".@	c #D8D3CF",
"+@	c #D6D1CC",
"@@	c #D6D2CD",
"#@	c #D5D1CD",
"$@	c #B5B0AA",
"%@	c #D3CFCB",
"&@	c #D5D1CC",
"*@	c #DCD9D5",
"=@	c #E2E0DB",
"-@	c #96807D",
";@	c #D9D5D0",
">@	c #E3E1DB",
",@	c #DBD6D1",
"'@	c #D7D2CE",
")@	c #DAD7D3",
"!@	c #EBE8E3",
"~@	c #171716",
"{@	c #E6E6E1",
"]@	c #421615",
"^@	c #2A0000",
"/@	c #775B59",
"(@	c #552F2D",
"_@	c #370909",
":@	c #735653",
"<@	c #6A4A48",
"[@	c #4E2625",
"}@	c #4D2525",
"|@	c #B8B0AB",
"1@	c #C2BBB7",
"2@	c #613E3D",
"3@	c #5F3B3A",
"4@	c #5F3C3A",
"5@	c #512928",
"6@	c #A2928F",
"7@	c #CECAC5",
"8@	c #471C1B",
"9@	c #2C0000",
"0@	c #623F3E",
"a@	c #856C6A",
"b@	c #7F6562",
"c@	c #4D2624",
"d@	c #62403F",
"e@	c #4F2827",
"f@	c #846B69",
"g@	c #DDD9D4",
"h@	c #181717",
"i@	c #F6F8F2",
"j@	c #4E2524",
"k@	c #380909",
"l@	c #C6BEBA",
"m@	c #522A29",
"n@	c #D3CECA",
"o@	c #D1CCC7",
"p@	c #220000",
"q@	c #9E8B88",
"r@	c #D5D2CD",
"s@	c #E9EBE6",
"t@	c #E9EBE5",
"u@	c #856B68",
"v@	c #401414",
"w@	c #E2E1DC",
"x@	c #9D8A87",
"y@	c #E3E2DD",
"z@	c #E3E3DD",
"A@	c #947F7C",
"B@	c #2D0000",
"C@	c #A39B98",
"D@	c #CED1CD",
"E@	c #A69F9D",
"F@	c #2B0000",
"G@	c #9E8C89",
"H@	c #F0F1EB",
"I@	c #4D2423",
"J@	c #3B0C0C",
"K@	c #E0E1DA",
"L@	c #E2E3DD",
"M@	c #63403E",
"N@	c #DBDBD4",
"O@	c #D8D7D1",
"P@	c #97837F",
"Q@	c #D7D6CF",
"R@	c #B6ABA7",
"S@	c #330505",
"T@	c #DDDDD7",
"U@	c #DCDCD6",
"V@	c #674745",
"W@	c #320101",
"X@	c #310100",
"Y@	c #8F7875",
"Z@	c #171817",
"`@	c #3B0D0C",
" #	c #E2E3DE",
".#	c #644240",
"+#	c #DCDCD7",
"@#	c #94807E",
"##	c #3A0B0B",
"$#	c #603E3C",
"%#	c #CFCCC7",
"&#	c #E3E5E0",
"*#	c #876F6D",
"=#	c #D5D5D0",
"-#	c #94807D",
";#	c #6E4F4D",
">#	c #E6E8E2",
",#	c #E4E6E0",
"'#	c #E7E9E3",
")#	c #EFEFE9",
"!#	c #F9FBF5",
"~#	c #3B0D0D",
"{#	c #EBECE7",
"]#	c #664442",
"^#	c #E5E5E0",
"/#	c #95827F",
"(#	c #BDBEBA",
"_#	c #340605",
":#	c #60403E",
"<#	c #CBCAC5",
"[#	c #AAA09D",
"}#	c #411515",
"|#	c #BBBBB7",
"1#	c #8B7976",
"2#	c #D7D3CE",
"3#	c #EAECE6",
"4#	c #B6A9A6",
"5#	c #7D605E",
"6#	c #A69592",
"7#	c #BCADA9",
"8#	c #1A1A19",
"9#	c #E1E1DB",
"0#	c #491F1E",
"a#	c #380908",
"b#	c #D3D3CD",
"c#	c #D3D4CD",
"d#	c #5E3B39",
"e#	c #CECDC7",
"f#	c #CAC8C2",
"g#	c #8D7874",
"h#	c #C8C5BF",
"i#	c #A79A95",
"j#	c #461D1C",
"k#	c #340303",
"l#	c #56302E",
"m#	c #664644",
"n#	c #CCCBC5",
"o#	c #B4ABA6",
"p#	c #603D3B",
"q#	c #D0CFC9",
"r#	c #A89B97",
"s#	c #502928",
"t#	c #330403",
"u#	c #3D1110",
"v#	c #715351",
"w#	c #C7BFB9",
"x#	c #171616",
"y#	c #F1F0EB",
"z#	c #EBEDE8",
"A#	c #ECEEE9",
"B#	c #E8EAE4",
"C#	c #EDF0EA",
"D#	c #E3E3DE",
"E#	c #EAECE7",
"F#	c #ECEEE8",
"G#	c #E8E9E4",
"H#	c #EDEFEA",
"I#	c #E2E2DD",
"J#	c #EAEBE6",
"K#	c #E7E8E3",
"L#	c #EBE9E4",
"M#	c #DBD8D3",
"N#	c #E9E6E1",
"O#	c #DFDCD6",
"P#	c #CECCC6",
"Q#	c #DCD9D3",
"R#	c #E0DEDB",
"S#	c #EFEDE9",
"T#	c #EFEDE7",
"U#	c #EBE9E2",
"V#	c #151514",
". + @ # $ % $ & & + + $ @ # # * = + % $ - # # - % @ $ & & ; > , ",
"@ ' ' ' ) ! ~ { { ] ^ / ' ' ' ' ( _ : / ' ' ' ' < ' ) [ { ' ' - ",
"- _ ^ } { : | { 1 ' < < 2 ' ' ' 3 [ 4 < 5 ' ' 5 } ' 5 6 7 [ ' - ",
"; 7 _ } 8 9 0 a b } c 3 ^ ' ' ' d 1 9 3 / ' e f g h ] i g ( / + ",
"@ } ] } j k { _ ' ' 5 ^ ' ' ' ' 1 / { k k l m n ' ' o { k p ' - ",
"- } } ' q ~ o ' ' ' ' ' ' ' ' ' r ' ' { q ' s t ' } j c 1 ~ p ; ",
"# ' ] ' ' ' ' u v w x y z A ' B C D E F ' G H H I J 5 ( k [ ' - ",
"; ' ' ' ' ' ' K L M ! N O P Q R S T U V W ' s X Y 8 j Z 8 : o ; ",
"* ' ' ' ~ < i `  ...+.' @.#.$.s %.&.*.m =.-.s ;.>.,.p 8 1 { ' - ",
"; [ 5 } '.' } ).!.~.' ' @.#.{.].^./.^ (._.:.s <.[.h { h }.< j + ",
"# ' ] ' o ~ ' |.!.~.2 ' @.1.2.R 3.' 4.5.6.' R 7.8.' [ 9./ 2 ' @ ",
"; k 5 0.c a.b.c.d.e.p ' H f.' g.h.i.j.k.l.m.n.o.p.j q.r.s.t.j u.",
"v.w.x.y.z.A.B.C.D.E.F.G.H.I.J.B.K.L.M.M.N.J.O.P.Q.R.S.T.J.J.U.; ",
"& V.W.X.Y.Z.`. +.+++@+#+$+%+&+*+*+=+N.-+*+*+*+*+*+*+*+*+*+*+;+>+",
">+,+'+)+!+-+~+{+]+~+^+-+*+/+(+_+:+<+[+_+}+[+|+:+:+(+1+:+:+-+2+u.",
"+ 3+4+]+5+6+7+^+8+_+9+_+0+~+a+_+(+b+c+(+(+d+e+8+f+g+h+(+(+i+j+u.",
">+R.k+k+l+m+n+m+k+l+k+m+o+`.p+q+:+r+s+t+u+u+s+t+t+v+t+t+t+s+w+v.",
"> x+_+_+_+*+(+5+<+<+0+y+j+z+<+4+-+(+(+)+A+B+`.m+C+8+(+8+]+c+D++ ",
"> E+(+(+<+F+G+H+I+J+@+K+(+(+y+L+M+(+(+N+O+P+Q+R+S+T+U+V+W+<+D++ ",
"> B.X+Y+Z+`+ @c+.@+@@@*+=+=+#@$@%@&@*@=@-@P+ @;@>@]+,@.@'@)@!@+ ",
"~@{@]@^@/@(@_@:@<@[@}@|@$+1@2@3@4@5@6@7@8@9@0@a@`.b@c@d@e@f@g@h@",
"v.i@j@k@l@_+s m@n@o@p@q@(+)@r@s@t@u@v@w@x@m y@z@A@B@C@D@E@F@G@$ ",
"+ H@I@J@K@L@R M@N@O@P+P@Q@R@5@S@H H V T@P@P+O@U@V@H W@W@W@X@Y@Z@",
">+H@I@`@ # #R .#+#!+P+@#'+##$#%#&#*#I =#-#P+-+|+;#R +#>#,#'#)#>+",
"v.!#[@~#{#{#s ]#^#u+P+/#(#_#:#<#[#}#V |#1#p@2#3#4#9@5#w@/+6#7#8#",
"~@9#0#a#b#c#9@d#e#f#m g#h#i#j#k#l#m#I n#o#}@H p#q#r#s#t#u#v#w#x#",
"; y#3#z#t+t+A#B#t+u+C#^#u+D#E#F#t@G#H#6+I#J#A#B#t+D#s@A#z#K#y#v.",
"v.L#M#M#M#M#M#M#M#M#M#M#M#M#M#M#M#M#M#M#M#M#M#M#M#M#M#M#M#M#N#>+",
"> O#P#P#P#P#P#P#P#P#P#P#P#P#P#P#P#P#P#P#P#P#P#P#P#P#P#P#P#P#Q#~@",
"; y#E.R#R#R#R#R#R#R#R#R#R#R#R#R#R#R#R#R#R#R#R#R#R#R#R#R#R#R#S#v.",
"v.T#&+&+&+&+&+&+&+&+&+&+&+&+&+&+&+&+&+&+&+&+&+&+&+&+&+&+&+&+U#+ ",
", ~@V#V#V#V#V#V#V#V#V#V#V#V#V#V#V#V#V#V#V#V#V#V#V#V#V#V#V#V#~@, "};
